<?xml version="1.0" encoding="UTF-8"?>
<svg width="91px" height="50px" viewBox="0 0 91 50" version="1.1" xmlns="http://www.w3.org/2000/svg" xmlns:xlink="http://www.w3.org/1999/xlink">
    <defs></defs>
    <g id="Page-1" stroke="none" stroke-width="1" fill="none" fill-rule="evenodd">
        <g id="salogo" fill="#FFFFFF">
            <path d="M0.0153557265,29.6925704 L0.0153557265,48.6678173 C8.48004008,48.9491217 14.6766247,47.5439637 18.6051095,44.4523433 C20.1009303,43.2751693 23.5589319,40.544011 25.4213109,35.4204917 C27.2423324,30.4107496 27.4711275,23.0116497 28.6570417,21.4325369 C30.2562163,19.3031441 33.2083372,18.5766537 37.5134045,19.2530657 C38.4625838,15.0645177 40.1125389,11.4005998 42.46327,8.26131189 C44.814001,5.12202399 47.8971148,2.46515674 51.7126113,0.290710143 C46.0748164,0.301477656 42.0355243,0.301477656 39.594735,0.290710143 C33.9985256,0.266022533 28.3834656,0.035337419 24.5180862,0.590292614 C20.808043,1.1229461 18.7484693,2.28683498 16.6196873,3.5947419 C12.6952139,6.0059075 10.7258417,9.11752319 9.44289636,15.4055856 C9.22340242,16.4813849 9.31029947,20.997627 8.97143156,23.4203015 C8.63256365,25.8429759 7.59677466,27.8818551 5.30964119,28.8247847 C3.78488554,29.4534044 2.02012372,29.7426663 0.0153557265,29.6925704 Z" id="Path"></path>
            <path d="M72.2072777,49.2202138 L90.0704474,49.2202138 L90.0704474,21.9227033 C89.5942316,15.7618886 87.2387625,10.7224187 83.0040399,6.80429371 C76.6519561,0.927106231 70.2497236,0.194586196 66.5551054,0.165421977 C57.5374937,0.0942396302 40.6645611,4.35241768 40.4592253,25.4418778 C40.358071,35.8311435 46.5489356,43.8961949 54.4070288,47.5481021 C59.6457575,49.9827069 64.6788307,50.5400775 69.5062481,49.2202138 L69.5062481,30.7594999 C67.9479987,32.1377873 65.9121249,32.52671 63.3986268,31.9262679 C59.6283797,31.0256049 58.6531908,27.5781828 58.6375224,26.1730269 C58.6039395,23.1612749 59.8221864,18.5912735 65.2642253,18.5912735 C68.8922513,18.5912735 71.2066021,20.7409743 72.2072777,25.0403758 L72.2072777,49.2202138 Z" id="Path-2"></path>
        </g>
    </g>
</svg>
