<?xml version="1.0" encoding="UTF-8"?>
<svg width="700px" height="500px" viewBox="0 0 700 500" version="1.1" xmlns="http://www.w3.org/2000/svg" xmlns:xlink="http://www.w3.org/1999/xlink">
    <!-- Generator: Sketch 47.1 (45422) - http://www.bohemiancoding.com/sketch -->
    <title>Paysafe</title>
    <desc>Created with Sketch.</desc>
    <defs>
        <rect id="path-1" x="0" y="0" width="700" height="500"></rect>
    </defs>
    <g id="Page-2" stroke="none" stroke-width="1" fill="none" fill-rule="evenodd">
        <g id="Paysafe">
            <g id="Rectangle-2-+-Rectangle-2-+-Rectangle-2-+-Rectangle-2-Mask">
                <mask id="mask-2" fill="white">
                    <use xlink:href="#path-1"></use>
                </mask>
                <use id="Mask" fill="#2F2C46" xlink:href="#path-1"></use>
                <rect id="Rectangle-2" fill="#7881D0" mask="url(#mask-2)" x="-49" y="336" width="235" height="235" rx="117.5"></rect>
                <rect id="Rectangle-2" fill="#DE5B66" mask="url(#mask-2)" x="607" y="272" width="156" height="156" rx="78"></rect>
                <rect id="Rectangle-2" fill="#4CC4CE" mask="url(#mask-2)" x="386" y="52" width="66" height="66" rx="33"></rect>
                <rect id="Rectangle-2" fill="#EDD2B8" mask="url(#mask-2)" x="94" y="145" width="27" height="27" rx="13.5"></rect>
            </g>
            <g id="Paysafe-Logo" transform="translate(165.000000, 207.000000)">
                <rect id="Rectangle-2" fill="#7881D0" x="352" y="25" width="18" height="18" rx="9"></rect>
                <rect id="Rectangle-2" fill="#DE5B66" x="352" y="53" width="18" height="18" rx="9"></rect>
                <path d="M50.1339261,26.3916977 C50.1339261,30.2192847 49.4181789,33.4449044 47.986663,36.0686535 C46.5551471,38.6924027 44.6257415,40.8068041 42.1983884,42.4119212 C39.7710354,44.0170384 36.9702854,45.189991 33.7960545,45.9308143 C30.6218235,46.6716376 27.3231624,47.0420436 23.8999722,47.0420436 L15.9644346,47.0420436 L15.9644346,71.7668973 L0,71.7668973 L0,6.20436402 L24.2734093,6.20436402 C27.883319,6.20436402 31.2597787,6.55933652 34.4028897,7.26929218 C37.5460007,7.97924783 40.2845118,9.12133327 42.6185051,10.6955828 C44.9524985,12.2698322 46.7885457,14.3379329 48.1267019,16.8999468 C49.464858,19.4619607 50.1339261,22.625846 50.1339261,26.3916977 Z M34.1694915,26.4843002 C34.1694915,24.9409183 33.8582971,23.6753642 33.2358989,22.6875998 C32.6135006,21.6998354 31.7732756,20.9281561 30.7151987,20.3725386 C29.6571217,19.8169211 28.4590231,19.446515 27.1208669,19.2613092 C25.7827107,19.0761034 24.3978955,18.9835019 22.9663795,18.9835019 L15.9644346,18.9835019 L15.9644346,34.4481107 L22.6863018,34.4481107 C24.1800575,34.4481107 25.6115519,34.324642 26.980828,34.0777009 C28.3501041,33.8307598 29.5793221,33.3986194 30.668519,32.7812666 C31.7577159,32.1639139 32.6135006,31.3459338 33.2358989,30.3273018 C33.8582971,29.3086697 34.1694915,28.027682 34.1694915,26.4843002 Z M81.969436,51.672166 L80.0088914,51.672166 C78.3284162,51.672166 76.6324064,51.749334 74.9208113,51.9036722 C73.2092162,52.0580104 71.6843635,52.3512485 70.3462073,52.7833954 C69.0080511,53.2155423 67.9033108,53.8483194 67.0319533,54.6817456 C66.1605958,55.5151718 65.7249236,56.6109565 65.7249236,57.9691325 C65.7249236,58.8334264 65.9272,59.5742385 66.3317588,60.1915913 C66.7363177,60.808944 67.2497885,61.3028188 67.8721867,61.6732304 C68.4945849,62.0436421 69.2103322,62.3060131 70.0194498,62.4603513 C70.8285675,62.6146894 71.6065536,62.6918574 72.3534315,62.6918574 C75.4654226,62.6918574 77.8460601,61.8430101 79.4954154,60.14529 C81.1447707,58.44757 81.969436,56.1479655 81.969436,53.2464077 L81.969436,51.672166 Z M53.8682967,31.9478446 C56.6068489,29.3549631 59.796592,27.4103311 63.4376216,26.1138904 C67.0786512,24.8174496 70.7974248,24.169239 74.5940539,24.169239 C78.5151627,24.169239 81.8293835,24.6476802 84.5368158,25.6045769 C87.244248,26.5614737 89.4381689,28.043098 91.1186441,30.0494944 C92.7991193,32.0558908 94.0283373,34.5869991 94.8063351,37.6428952 C95.5843329,40.6987912 95.9733259,44.3256842 95.9733259,48.5236828 L95.9733259,71.7668973 L81.969436,71.7668973 L81.969436,66.8589675 L81.6893582,66.8589675 C80.5068015,68.772761 78.7174335,70.2543854 76.3212003,71.303885 C73.9249672,72.3533847 71.3264936,72.8781267 68.5257016,72.8781267 C66.6585069,72.8781267 64.7291014,72.6311893 62.7374271,72.1373071 C60.7457528,71.6434249 58.9252653,70.8408784 57.27591,69.7296434 C55.6265547,68.6184085 54.2728589,67.1367841 53.2147819,65.2847259 C52.1567049,63.4326677 51.6276744,61.1484968 51.6276744,58.4321448 C51.6276744,55.09844 52.545698,52.4129958 54.3817727,50.3757318 C56.2178475,48.3384677 58.5829252,46.7642419 61.477077,45.6530069 C64.3712287,44.541772 67.5920912,43.8009598 71.139761,43.4305482 C74.6874309,43.0601365 78.1416892,42.8749335 81.5026396,42.8749335 L81.5026396,42.1341139 C81.5026396,39.8499087 80.6935341,38.1676478 79.0752987,37.0872805 C77.4570633,36.0069132 75.4654189,35.4667376 73.1003056,35.4667376 C70.9219119,35.4667376 68.8213494,35.9297452 66.7985552,36.8557743 C64.7757609,37.7818035 63.0486318,38.8930217 61.6171159,40.1894625 L53.8682967,31.9478446 Z M126.781884,84.2219266 C126.346205,85.1788233 125.817175,85.8810515 125.194776,86.3286323 C124.572378,86.776213 123.576556,87 122.20728,87 L111.377605,87 L120.713532,67.5534859 L101.388163,23.7525279 L114.178383,23.7525279 C115.2987,23.7525279 116.170044,23.9994653 116.792442,24.4933475 C117.414841,24.9872297 117.850513,25.573706 118.099472,26.252794 L126.03501,46.9494412 C126.781888,48.8632347 127.388717,50.7769995 127.855515,52.690793 C128.166715,51.7030286 128.509028,50.7307126 128.882467,49.7738159 C129.255906,48.8169191 129.61378,47.8446031 129.956099,46.8568387 L137.144762,26.252794 C137.393722,25.5428384 137.883853,24.9486453 138.615171,24.4701969 C139.346489,23.9917485 140.132255,23.7525279 140.972492,23.7525279 L152.642401,23.7525279 L126.781884,84.2219266 Z M186.345096,39.263438 C185.100299,38.0904678 183.637686,37.1027182 181.95721,36.3001597 C180.276735,35.4976011 178.502927,35.0963278 176.635732,35.0963278 C175.204216,35.0963278 173.88164,35.3741324 172.667963,35.9297499 C171.454287,36.4853673 170.847458,37.4422497 170.847458,38.8004258 C170.847458,40.0968665 171.516526,41.0228817 172.854682,41.5784992 C174.192838,42.1341167 176.355639,42.7514601 179.343151,43.4305482 C181.085866,43.8009598 182.844114,44.3257018 184.617949,45.0047898 C186.391784,45.6838778 187.994436,46.5790258 189.425952,47.6902608 C190.857468,48.8014957 192.008887,50.1596514 192.880245,51.7647685 C193.751602,53.3698856 194.187274,55.2836504 194.187274,57.5061203 C194.187274,60.4076782 193.596005,62.8616185 192.413448,64.8680149 C191.230892,66.8744113 189.690479,68.4949379 187.792164,69.7296434 C185.89385,70.9643489 183.762168,71.859497 181.397055,72.4151144 C179.031941,72.9707319 176.666864,73.2485365 174.30175,73.2485365 C170.505121,73.2485365 166.786348,72.6466266 163.145318,71.4427887 C159.504289,70.2389509 156.470143,68.4640884 154.04279,66.118148 L162.631842,57.1357105 C164.001118,58.6173571 165.681568,59.852044 167.673243,60.8398084 C169.664917,61.8275728 171.781039,62.3214476 174.021673,62.3214476 C175.266469,62.3214476 176.495687,62.0282094 177.709364,61.4417243 C178.92304,60.8552392 179.529869,59.8211889 179.529869,58.3395423 C179.529869,56.919631 178.783003,55.8701471 177.289247,55.1910591 C175.795491,54.5119711 173.461533,53.8020261 170.287302,53.0612028 C168.669067,52.6907911 167.050856,52.1969163 165.43262,51.5795636 C163.814385,50.9622109 162.367331,50.1287972 161.091414,49.0792975 C159.815498,48.0297978 158.772997,46.7333765 157.963879,45.1899947 C157.154761,43.6466128 156.750208,41.7945824 156.750208,39.6338478 C156.750208,36.8557605 157.341478,34.4944216 158.524034,32.5497605 C159.706591,30.6050994 161.231444,29.0154399 163.098639,27.7807344 C164.965833,26.546029 167.035276,25.6354473 169.30703,25.0489622 C171.578783,24.4624771 173.834943,24.169239 176.075577,24.169239 C179.561007,24.169239 182.968586,24.7094145 186.298416,25.7897818 C189.628247,26.8701491 192.444556,28.4906757 194.74743,30.6514103 L186.345096,39.263438 Z M230.504029,51.672166 L228.543484,51.672166 C226.863009,51.672166 225.166999,51.749334 223.455404,51.9036722 C221.743809,52.0580104 220.218956,52.3512485 218.8808,52.7833954 C217.542644,53.2155423 216.437904,53.8483194 215.566546,54.6817456 C214.695189,55.5151718 214.259517,56.6109565 214.259517,57.9691325 C214.259517,58.8334264 214.461793,59.5742385 214.866352,60.1915913 C215.270911,60.808944 215.784381,61.3028188 216.40678,61.6732304 C217.029178,62.0436421 217.744925,62.3060131 218.554043,62.4603513 C219.36316,62.6146894 220.141147,62.6918574 220.888024,62.6918574 C224.000016,62.6918574 226.380653,61.8430101 228.030008,60.14529 C229.679364,58.44757 230.504029,56.1479655 230.504029,53.2464077 L230.504029,51.672166 Z M202.40289,31.9478446 C205.141442,29.3549631 208.331185,27.4103311 211.972215,26.1138904 C215.613244,24.8174496 219.332018,24.169239 223.128647,24.169239 C227.049756,24.169239 230.363976,24.6476802 233.071409,25.6045769 C235.778841,26.5614737 237.972762,28.043098 239.653237,30.0494944 C241.333712,32.0558908 242.56293,34.5869991 243.340928,37.6428952 C244.118926,40.6987912 244.507919,44.3256842 244.507919,48.5236828 L244.507919,71.7668973 L230.504029,71.7668973 L230.504029,66.8589675 L230.223951,66.8589675 C229.041394,68.772761 227.252026,70.2543854 224.855793,71.303885 C222.45956,72.3533847 219.861087,72.8781267 217.060295,72.8781267 C215.1931,72.8781267 213.263694,72.6311893 211.27202,72.1373071 C209.280346,71.6434249 207.459858,70.8408784 205.810503,69.7296434 C204.161148,68.6184085 202.807452,67.1367841 201.749375,65.2847259 C200.691298,63.4326677 200.162267,61.1484968 200.162267,58.4321448 C200.162267,55.09844 201.080291,52.4129958 202.916366,50.3757318 C204.75244,48.3384677 207.117518,46.7642419 210.01167,45.6530069 C212.905822,44.541772 216.126684,43.8009598 219.674354,43.4305482 C223.222024,43.0601365 226.676282,42.8749335 230.037233,42.8749335 L230.037233,42.1341139 C230.037233,39.8499087 229.228127,38.1676478 227.609892,37.0872805 C225.991656,36.0069132 224.000012,35.4667376 221.634899,35.4667376 C219.456505,35.4667376 217.355942,35.9297452 215.333148,36.8557743 C213.310354,37.7818035 211.583225,38.8930217 210.151709,40.1894625 L202.40289,31.9478446 Z M284.745763,12.9643427 C284.185604,12.7791369 283.532096,12.624801 282.785218,12.5013305 C282.03834,12.3778599 281.291474,12.3161256 280.544596,12.3161256 C279.11308,12.3161256 277.96166,12.563063 277.090303,13.0569452 C276.218945,13.5508274 275.534318,14.2144716 275.036399,15.0478978 C274.53848,15.881324 274.196167,16.8227728 274.009447,17.8722725 C273.822728,18.9217721 273.729369,19.9712561 273.729369,21.0207557 L273.729369,25.6508781 L284.092248,25.6508781 L284.092248,37.0409792 L273.729369,37.0409792 L273.729369,71.7668973 L258.41845,71.7668973 L258.41845,37.0409792 L249.922756,37.0409792 L249.922756,25.6508781 L258.41845,25.6508781 L258.41845,21.2059606 C258.41845,18.366138 258.729644,15.6652603 259.352042,13.1032464 C259.97444,10.5412325 261.048061,8.28792883 262.572937,6.3432677 C264.097813,4.39860656 266.151696,2.85524786 268.734649,1.71314529 C271.317601,0.57104272 274.538464,0 278.397333,0 C279.704369,0 280.995826,0.0771679351 282.271742,0.23150612 C283.547659,0.385844305 284.714638,0.617348111 285.772715,0.926024481 L284.745763,12.9643427 Z M321.902751,43.4305482 C321.902751,41.0228725 321.140324,38.9547718 319.615449,37.2261841 C318.090573,35.4975965 315.803294,34.6333156 312.753543,34.6333156 C311.259787,34.6333156 309.890531,34.8648194 308.645735,35.327834 C307.400938,35.7908485 306.311758,36.4236256 305.378161,37.2261841 C304.444563,38.0287427 303.697697,38.9701915 303.137538,40.0505588 C302.57738,41.1309261 302.266185,42.257578 302.203946,43.4305482 L321.902751,43.4305482 Z M336,49.2645024 L336,51.1165514 C336,51.7339041 335.968881,52.3203804 335.906641,52.8759979 L302.203946,52.8759979 C302.328425,54.1724386 302.717418,55.3453912 303.370936,56.3948909 C304.024455,57.4443906 304.864679,58.3549722 305.891637,59.1266631 C306.918594,59.898354 308.070013,60.5002639 309.345929,60.9324109 C310.621846,61.3645578 311.944422,61.580628 313.313698,61.580628 C315.741051,61.580628 317.794935,61.133054 319.47541,60.2378925 C321.155885,59.342731 322.525141,58.185212 323.583218,56.7653007 L334.226174,63.432677 C332.04778,66.5811759 329.169232,69.0042491 325.590442,70.7019691 C322.011652,72.3996892 317.857206,73.2485365 313.12698,73.2485365 C309.64155,73.2485365 306.342889,72.7083609 303.230897,71.6279936 C300.118906,70.5476263 297.395955,68.9734004 295.061962,66.9052688 C292.727968,64.8371371 290.891921,62.2905952 289.553765,59.2655668 C288.215609,56.2405384 287.546541,52.7834149 287.546541,48.8940926 C287.546541,45.1282409 288.200049,41.7174182 289.507085,38.6615221 C290.814122,35.605626 292.58793,33.0127834 294.828563,30.8829164 C297.069197,28.7530495 299.71435,27.1016557 302.764101,25.9286855 C305.813852,24.7557153 309.112514,24.169239 312.660183,24.169239 C316.083374,24.169239 319.226437,24.7402817 322.089469,25.8823842 C324.952501,27.0244868 327.410937,28.6758806 329.464851,30.8366152 C331.518765,32.9973498 333.121417,35.6210596 334.272854,38.7078233 C335.42429,41.794587 336,45.3134449 336,49.2645024 Z" id="Paysafe" fill="#FFFFFF"></path>
            </g>
        </g>
    </g>
</svg>