<?xml version="1.0" encoding="UTF-8"?>
<svg width="700px" height="500px" viewBox="0 0 700 500" version="1.1" xmlns="http://www.w3.org/2000/svg" xmlns:xlink="http://www.w3.org/1999/xlink">
    <!-- Generator: Sketch 47.1 (45422) - http://www.bohemiancoding.com/sketch -->
    <title>Quickstats</title>
    <desc>Created with Sketch.</desc>
    <defs>
        <rect id="path-1" x="0" y="0" width="700" height="500"></rect>
    </defs>
    <g id="Page-2" stroke="none" stroke-width="1" fill="none" fill-rule="evenodd">
        <g id="Quickstats">
            <g id="Chatler">
                <g id="Group-+-Path-28-Mask">
                    <mask id="mask-2" fill="white">
                        <use xlink:href="#path-1"></use>
                    </mask>
                    <use id="Mask" fill="#2B313A" xlink:href="#path-1"></use>
                    <g id="Group" mask="url(#mask-2)">
                        <g transform="translate(0.000000, 180.000000)" id="Group-4">
                            <g>
                                <path d="M86.8834871,173.02459 L90.0869242,173.02459 C93.6602953,173.02459 98.6336756,169.016014 104.5,162.263806 C77.218961,130.879515 30.1863157,39.0443734 9.84472859,2.6912355 C8.6743337,0.600012756 6.23946618,-0.435230084 3.92259506,0.172516441 C1.60572393,0.781857999 -0.00635931394,2.87946129 1.88587366e-05,5.27535502 L1.88587366e-05,5.30087719 C-0.00157568443,6.09046896 0.175418811,6.87049053 0.518245287,7.58192076 C5.82329051,18.5229553 50.6283591,118.068981 86.8834871,173.02459 Z" id="Shape" fill="#434E5D" fill-rule="nonzero"></path>
                                <path d="M122.116516,173.02459 C116.803497,181.283747 110.916443,189.16083 104.5,196.598529 C111.472938,204.402381 117.645416,209 122.516747,209 L194.586922,209 C205.396332,209 209,198.208014 209,183.816576 C209,176.620857 201.792664,173.02459 183.775917,173.02459 L122.116516,173.02459 Z" id="Shape" fill="#434E5D" fill-rule="nonzero"></path>
                                <path d="M86.9472667,173.009107 L104.693317,196.699829 C110.429098,192.59812 114.237442,189.3072 116.118351,186.827069 C117.999259,184.346937 120.106265,179.792273 122.439367,173.163077 C118.63909,171.607435 115.204965,169.920604 112.136991,168.102582 C109.069018,166.284561 106.511185,164.340039 104.463493,162.269016 L86.9472667,173.009107 Z" id="Path-13" fill="#434E5D"></path>
                            </g>
                        </g>
                    </g>
                    <path d="M102.63705,412.235386 C103.038725,411.986914 112.608758,410.904516 121.797091,411.006795 C132.337852,411.124128 142.673166,412.478303 143.100046,412.998901 C143.899035,413.973302 143.758559,422.98298 142.624659,423.679189 C142.045867,424.034565 131.745692,425.473869 121.797091,425.467076 C112.255606,425.460562 103.046428,424.022551 102.63705,423.679189 C101.800826,422.977814 101.774576,412.768903 102.63705,412.235386 Z" id="Path-28" fill="#434E5D" mask="url(#mask-2)"></path>
                </g>
            </g>
            <path d="M179,276 C174.519978,276 170.413352,275.360006 166.68,274.08 C162.946648,272.799994 159.760013,270.920012 157.12,268.44 C154.479987,265.959988 152.426674,262.920018 150.96,259.32 C149.493326,255.719982 148.76,251.600023 148.76,246.96 C148.76,242.639978 149.533326,238.693351 151.08,235.12 C152.626674,231.546649 154.77332,228.480013 157.52,225.92 C160.26668,223.359987 163.519981,221.37334 167.28,219.96 C171.040019,218.54666 175.106645,217.84 179.48,217.84 C183.853355,217.84 187.906648,218.54666 191.64,219.96 C195.373352,221.37334 198.599986,223.346654 201.32,225.88 C204.040014,228.413346 206.159992,231.453316 207.68,235 C209.200008,238.546684 209.96,242.453312 209.96,246.72 C209.96,248.906678 209.720002,250.946657 209.24,252.84 C208.759998,254.733343 208.120004,256.453326 207.32,258 C206.519996,259.546674 205.613338,260.919994 204.6,262.12 C203.586662,263.320006 202.573338,264.319996 201.56,265.12 L201.56,265.36 L213.48,265.12 L213.48,276 L179,276 Z M195.48,247.12 C195.48,244.666654 195.093337,242.40001 194.32,240.32 C193.546663,238.23999 192.45334,236.453341 191.04,234.96 C189.62666,233.466659 187.933343,232.306671 185.96,231.48 C183.986657,230.653329 181.826678,230.24 179.48,230.24 C177.186655,230.24 175.066676,230.653329 173.12,231.48 C171.173324,232.306671 169.480007,233.466659 168.04,234.96 C166.599993,236.453341 165.480004,238.23999 164.68,240.32 C163.879996,242.40001 163.48,244.666654 163.48,247.12 C163.48,249.680013 163.866663,252.013323 164.64,254.12 C165.413337,256.226677 166.50666,258.039992 167.92,259.56 C169.33334,261.080008 171.013324,262.253329 172.96,263.08 C174.906676,263.906671 177.053322,264.32 179.4,264.32 C181.693345,264.32 183.826657,263.906671 185.8,263.08 C187.773343,262.253329 189.479993,261.080008 190.92,259.56 C192.360007,258.039992 193.479996,256.226677 194.28,254.12 C195.080004,252.013323 195.48,249.680013 195.48,247.12 Z M245.8,276 L245.8,270.48 L245.64,270.48 C245.159998,271.386671 244.533337,272.239996 243.76,273.04 C242.986663,273.840004 242.080005,274.53333 241.04,275.12 C239.999995,275.70667 238.85334,276.186665 237.6,276.56 C236.34666,276.933335 235.026674,277.12 233.64,277.12 C230.97332,277.12 228.720009,276.640005 226.88,275.68 C225.039991,274.719995 223.546672,273.480008 222.4,271.96 C221.253328,270.439992 220.426669,268.706676 219.92,266.76 C219.413331,264.813324 219.16,262.826677 219.16,260.8 L219.16,236.16 L232.36,236.16 L232.36,257.76 C232.36,258.880006 232.439999,259.946662 232.6,260.96 C232.760001,261.973338 233.066664,262.879996 233.52,263.68 C233.973336,264.480004 234.57333,265.106664 235.32,265.56 C236.06667,266.013336 237.053327,266.24 238.28,266.24 C240.573345,266.24 242.319994,265.386675 243.52,263.68 C244.720006,261.973325 245.32,259.973345 245.32,257.68 L245.32,236.16 L258.44,236.16 L258.44,276 L245.8,276 Z M282.92,223.44 C282.92,224.453338 282.720002,225.399996 282.32,226.28 C281.919998,227.160004 281.38667,227.919997 280.72,228.56 C280.05333,229.200003 279.253338,229.706665 278.32,230.08 C277.386662,230.453335 276.413338,230.64 275.4,230.64 C273.266656,230.64 271.480007,229.93334 270.04,228.52 C268.599993,227.10666 267.88,225.413343 267.88,223.44 C267.88,222.479995 268.066665,221.560004 268.44,220.68 C268.813335,219.799996 269.346663,219.040003 270.04,218.4 C270.733337,217.759997 271.533329,217.240002 272.44,216.84 C273.346671,216.439998 274.333328,216.24 275.4,216.24 C276.413338,216.24 277.386662,216.426665 278.32,216.8 C279.253338,217.173335 280.05333,217.679997 280.72,218.32 C281.38667,218.960003 281.919998,219.719996 282.32,220.6 C282.720002,221.480004 282.92,222.426662 282.92,223.44 Z M268.84,276 L268.84,236.16 L281.96,236.16 L281.96,276 L268.84,276 Z M319.8,249.04 C319.05333,248.079995 318.040006,247.30667 316.76,246.72 C315.479994,246.13333 314.17334,245.84 312.84,245.84 C311.453326,245.84 310.200006,246.119997 309.08,246.68 C307.959994,247.240003 307.000004,247.986662 306.2,248.92 C305.399996,249.853338 304.773336,250.933327 304.32,252.16 C303.866664,253.386673 303.64,254.693326 303.64,256.08 C303.64,257.466674 303.853331,258.773327 304.28,260 C304.706669,261.226673 305.333329,262.306662 306.16,263.24 C306.986671,264.173338 307.973328,264.906664 309.12,265.44 C310.266672,265.973336 311.559993,266.24 313,266.24 C314.33334,266.24 315.653327,265.986669 316.96,265.48 C318.266673,264.973331 319.319996,264.240005 320.12,263.28 L327.4,272.16 C325.746658,273.760008 323.613346,275.013329 321,275.92 C318.386654,276.826671 315.613348,277.28 312.68,277.28 C309.533318,277.28 306.600014,276.800005 303.88,275.84 C301.159986,274.879995 298.80001,273.480009 296.8,271.64 C294.79999,269.799991 293.226672,267.573346 292.08,264.96 C290.933328,262.346654 290.36,259.386683 290.36,256.08 C290.36,252.82665 290.933328,249.893346 292.08,247.28 C293.226672,244.666654 294.79999,242.440009 296.8,240.6 C298.80001,238.759991 301.159986,237.346672 303.88,236.36 C306.600014,235.373328 309.506651,234.88 312.6,234.88 C314.040007,234.88 315.46666,235.013332 316.88,235.28 C318.29334,235.546668 319.653327,235.906664 320.96,236.36 C322.266673,236.813336 323.466661,237.37333 324.56,238.04 C325.653339,238.70667 326.599996,239.439996 327.4,240.24 L319.8,249.04 Z M375.4,276 L359.16,276 L346.12,256.88 L345.88,256.88 L345.88,276 L332.68,276 L332.68,215.52 L345.88,215.52 L345.88,252.32 L346.12,252.32 L358.84,236.16 L374.76,236.16 L359.4,254.16 L375.4,276 Z M403.16,247.92 C402.093328,246.906662 400.840007,246.053337 399.4,245.36 C397.959993,244.666663 396.440008,244.32 394.84,244.32 C393.613327,244.32 392.480005,244.559998 391.44,245.04 C390.399995,245.520002 389.88,246.346661 389.88,247.52 C389.88,248.640006 390.453328,249.439998 391.6,249.92 C392.746672,250.400002 394.599987,250.93333 397.16,251.52 C398.653341,251.840002 400.159992,252.29333 401.68,252.88 C403.200008,253.46667 404.573327,254.239995 405.8,255.2 C407.026673,256.160005 408.01333,257.333326 408.76,258.72 C409.50667,260.106674 409.88,261.75999 409.88,263.68 C409.88,266.186679 409.373338,268.306658 408.36,270.04 C407.346662,271.773342 406.026675,273.173328 404.4,274.24 C402.773325,275.306672 400.946677,276.079998 398.92,276.56 C396.893323,277.040002 394.866677,277.28 392.84,277.28 C389.58665,277.28 386.400016,276.760005 383.28,275.72 C380.159984,274.679995 377.56001,273.146677 375.48,271.12 L382.84,263.36 C384.013339,264.640006 385.453325,265.706662 387.16,266.56 C388.866675,267.413338 390.67999,267.84 392.6,267.84 C393.666672,267.84 394.719995,267.586669 395.76,267.08 C396.800005,266.573331 397.32,265.680006 397.32,264.4 C397.32,263.173327 396.680006,262.26667 395.4,261.68 C394.119994,261.09333 392.120014,260.480003 389.4,259.84 C388.013326,259.519998 386.626674,259.093336 385.24,258.56 C383.853326,258.026664 382.613339,257.306671 381.52,256.4 C380.426661,255.493329 379.533337,254.37334 378.84,253.04 C378.146663,251.70666 377.8,250.106676 377.8,248.24 C377.8,245.839988 378.306662,243.800008 379.32,242.12 C380.333338,240.439992 381.639992,239.066672 383.24,238 C384.840008,236.933328 386.613324,236.146669 388.56,235.64 C390.506676,235.133331 392.43999,234.88 394.36,234.88 C397.346682,234.88 400.266652,235.346662 403.12,236.28 C405.973348,237.213338 408.386657,238.613324 410.36,240.48 L403.16,247.92 Z M431.72,246 L431.72,261.2 C431.72,263.066676 432.079996,264.466662 432.8,265.4 C433.520004,266.333338 434.813324,266.8 436.68,266.8 C437.320003,266.8 437.999996,266.746667 438.72,266.64 C439.440004,266.533333 440.039998,266.373334 440.52,266.16 L440.68,275.76 C439.773329,276.080002 438.626674,276.359999 437.24,276.6 C435.853326,276.840001 434.466674,276.96 433.08,276.96 C430.41332,276.96 428.173342,276.62667 426.36,275.96 C424.546658,275.29333 423.093339,274.33334 422,273.08 C420.906661,271.82666 420.120002,270.333342 419.64,268.6 C419.159998,266.866658 418.92,264.933344 418.92,262.8 L418.92,246 L412.52,246 L412.52,236.16 L418.84,236.16 L418.84,225.68 L431.72,225.68 L431.72,236.16 L441.08,236.16 L441.08,246 L431.72,246 Z M470.76,258.64 L469.08,258.64 C467.639993,258.64 466.186674,258.706666 464.72,258.84 C463.253326,258.973334 461.946672,259.226665 460.8,259.6 C459.653328,259.973335 458.70667,260.519996 457.96,261.24 C457.21333,261.960004 456.84,262.906661 456.84,264.08 C456.84,264.82667 457.013332,265.466664 457.36,266 C457.706668,266.533336 458.146664,266.959998 458.68,267.28 C459.213336,267.600002 459.826663,267.826666 460.52,267.96 C461.213337,268.093334 461.879997,268.16 462.52,268.16 C465.18668,268.16 467.22666,267.426674 468.64,265.96 C470.05334,264.493326 470.76,262.506679 470.76,260 L470.76,258.64 Z M446.68,241.6 C449.026678,239.359989 451.759984,237.680006 454.88,236.56 C458.000016,235.439994 461.18665,234.88 464.44,234.88 C467.800017,234.88 470.639988,235.293329 472.96,236.12 C475.280012,236.946671 477.159993,238.226658 478.6,239.96 C480.040007,241.693342 481.09333,243.879987 481.76,246.52 C482.42667,249.160013 482.76,252.293315 482.76,255.92 L482.76,276 L470.76,276 L470.76,271.76 L470.52,271.76 C469.506662,273.413342 467.973344,274.693329 465.92,275.6 C463.866656,276.506671 461.640012,276.96 459.24,276.96 C457.639992,276.96 455.986675,276.746669 454.28,276.32 C452.573325,275.893331 451.01334,275.200005 449.6,274.24 C448.18666,273.279995 447.026671,272.000008 446.12,270.4 C445.213329,268.799992 444.76,266.826678 444.76,264.48 C444.76,261.599986 445.546659,259.280009 447.12,257.52 C448.693341,255.759991 450.719988,254.400005 453.2,253.44 C455.680012,252.479995 458.439985,251.840002 461.48,251.52 C464.520015,251.199998 467.479986,251.04 470.36,251.04 L470.36,250.4 C470.36,248.426657 469.666674,246.973338 468.28,246.04 C466.893326,245.106662 465.186677,244.64 463.16,244.64 C461.293324,244.64 459.493342,245.039996 457.76,245.84 C456.026658,246.640004 454.546673,247.599994 453.32,248.72 L446.68,241.6 Z M505.96,246 L505.96,261.2 C505.96,263.066676 506.319996,264.466662 507.04,265.4 C507.760004,266.333338 509.053324,266.8 510.92,266.8 C511.560003,266.8 512.239996,266.746667 512.96,266.64 C513.680004,266.533333 514.279998,266.373334 514.76,266.16 L514.92,275.76 C514.013329,276.080002 512.866674,276.359999 511.48,276.6 C510.093326,276.840001 508.706674,276.96 507.32,276.96 C504.65332,276.96 502.413342,276.62667 500.6,275.96 C498.786658,275.29333 497.333339,274.33334 496.24,273.08 C495.146661,271.82666 494.360002,270.333342 493.88,268.6 C493.399998,266.866658 493.16,264.933344 493.16,262.8 L493.16,246 L486.76,246 L486.76,236.16 L493.08,236.16 L493.08,225.68 L505.96,225.68 L505.96,236.16 L515.32,236.16 L515.32,246 L505.96,246 Z M544.92,247.92 C543.853328,246.906662 542.600007,246.053337 541.16,245.36 C539.719993,244.666663 538.200008,244.32 536.6,244.32 C535.373327,244.32 534.240005,244.559998 533.2,245.04 C532.159995,245.520002 531.64,246.346661 531.64,247.52 C531.64,248.640006 532.213328,249.439998 533.36,249.92 C534.506672,250.400002 536.359987,250.93333 538.92,251.52 C540.413341,251.840002 541.919992,252.29333 543.44,252.88 C544.960008,253.46667 546.333327,254.239995 547.56,255.2 C548.786673,256.160005 549.77333,257.333326 550.52,258.72 C551.26667,260.106674 551.64,261.75999 551.64,263.68 C551.64,266.186679 551.133338,268.306658 550.12,270.04 C549.106662,271.773342 547.786675,273.173328 546.16,274.24 C544.533325,275.306672 542.706677,276.079998 540.68,276.56 C538.653323,277.040002 536.626677,277.28 534.6,277.28 C531.34665,277.28 528.160016,276.760005 525.04,275.72 C521.919984,274.679995 519.32001,273.146677 517.24,271.12 L524.6,263.36 C525.773339,264.640006 527.213325,265.706662 528.92,266.56 C530.626675,267.413338 532.43999,267.84 534.36,267.84 C535.426672,267.84 536.479995,267.586669 537.52,267.08 C538.560005,266.573331 539.08,265.680006 539.08,264.4 C539.08,263.173327 538.440006,262.26667 537.16,261.68 C535.879994,261.09333 533.880014,260.480003 531.16,259.84 C529.773326,259.519998 528.386674,259.093336 527,258.56 C525.613326,258.026664 524.373339,257.306671 523.28,256.4 C522.186661,255.493329 521.293337,254.37334 520.6,253.04 C519.906663,251.70666 519.56,250.106676 519.56,248.24 C519.56,245.839988 520.066662,243.800008 521.08,242.12 C522.093338,240.439992 523.399992,239.066672 525,238 C526.600008,236.933328 528.373324,236.146669 530.32,235.64 C532.266676,235.133331 534.19999,234.88 536.12,234.88 C539.106682,234.88 542.026652,235.346662 544.88,236.28 C547.733348,237.213338 550.146657,238.613324 552.12,240.48 L544.92,247.92 Z" fill="#FFFFFF"></path>
        </g>
    </g>
</svg>