<?xml version="1.0" encoding="UTF-8"?>
<svg width="700px" height="500px" viewBox="0 0 700 500" version="1.1" xmlns="http://www.w3.org/2000/svg" xmlns:xlink="http://www.w3.org/1999/xlink">
    <!-- Generator: Sketch 54.1 (76490) - https://sketchapp.com -->
    <title>SealStats</title>
    <desc>Created with Sketch.</desc>
    <defs>
        <polygon id="path-1" points="0 0 700 0 700 500 0 500"></polygon>
    </defs>
    <g id="Page-2" stroke="none" stroke-width="1" fill="none" fill-rule="evenodd">
        <g id="SealStats">
            <g id="Group-+-Path-28-Mask">
                <mask id="mask-2" fill="white">
                    <use xlink:href="#path-1"></use>
                </mask>
                <use id="Mask" fill="#2B313A" xlink:href="#path-1"></use>
            </g>
            <g id="Group-4" transform="translate(136.000000, 195.000000)">
                <path d="M175.746765,44.3037634 C174.77079,43.0743666 173.495387,42.0974499 171.920518,41.3729839 C170.345648,40.6485179 168.826255,40.2862903 167.362292,40.2862903 C166.608129,40.2862903 165.842887,40.3521499 165.066543,40.483871 C164.290199,40.6155921 163.5915,40.8680537 162.970425,41.2412634 C162.34935,41.6144732 161.828098,42.0974433 161.406654,42.6901882 C160.98521,43.2829331 160.774492,44.040318 160.774492,44.9623656 C160.774492,45.7526921 160.940849,46.4112877 161.273567,46.938172 C161.606286,47.4650564 162.094267,47.9260733 162.737523,48.3212366 C163.38078,48.7163998 164.146021,49.0786274 165.033272,49.4079301 C165.920522,49.7372328 166.918664,50.0775072 168.027726,50.4287634 C169.624777,50.9556478 171.288346,51.5374072 173.018484,52.1740591 C174.748622,52.8107111 176.323468,53.6559087 177.743068,54.7096774 C179.162669,55.7634461 180.338258,57.0696607 181.269871,58.6283602 C182.201483,60.1870598 182.667283,62.1299167 182.667283,64.4569892 C182.667283,67.1353181 182.168212,69.4513791 181.170055,71.4052419 C180.171899,73.3591048 178.829953,74.9726639 177.144177,76.2459677 C175.458402,77.5192716 173.528662,78.4632586 171.354898,79.077957 C169.181135,79.6926554 166.940862,80 164.634011,80 C161.26246,80 158.001864,79.4182406 154.852126,78.2547043 C151.702387,77.091168 149.085038,75.4337025 147,73.2822581 L154.452865,65.7741935 C155.60629,67.1792185 157.125684,68.3537139 159.011091,69.2977151 C160.896497,70.2417162 162.770786,70.7137097 164.634011,70.7137097 C165.476899,70.7137097 166.297593,70.6258969 167.096118,70.4502688 C167.894644,70.2746407 168.593343,69.9892493 169.192237,69.594086 C169.791131,69.1989228 170.26802,68.6720463 170.622921,68.0134409 C170.977821,67.3548354 171.155268,66.5645207 171.155268,65.6424731 C171.155268,64.7643325 170.933459,64.0179242 170.489834,63.4032258 C170.046209,62.7885274 169.414052,62.2287212 168.593346,61.7237903 C167.772639,61.2188595 166.752317,60.7578426 165.532348,60.3407258 C164.312378,59.923609 162.926071,59.4735687 161.373383,58.9905914 C159.865057,58.5076141 158.390026,57.9368312 156.948244,57.2782258 C155.506462,56.6196204 154.219969,55.7744227 153.088725,54.7426075 C151.95748,53.7107923 151.048063,52.4594608 150.360444,50.9885753 C149.672825,49.5176898 149.32902,47.7285052 149.32902,45.6209677 C149.32902,43.030453 149.861363,40.8131813 150.926063,38.969086 C151.990763,37.1249908 153.388161,35.610221 155.118299,34.4247312 C156.848437,33.2392414 158.800359,32.3720906 160.974122,31.8232527 C163.147885,31.2744148 165.343797,31 167.561922,31 C170.223673,31 172.940836,31.4829701 175.713494,32.4489247 C178.486151,33.4148794 180.914962,34.8418364 183,36.7298387 L175.746765,44.3037634 Z M212,59 C212,57.3578865 211.458141,55.9473743 210.374408,54.7684211 C209.290674,53.5894678 207.665098,53 205.49763,53 C204.436014,53 203.46288,53.1578932 202.578199,53.4736842 C201.693518,53.7894753 200.919435,54.2210499 200.255924,54.7684211 C199.592414,55.3157922 199.061613,55.9578911 198.663507,56.6947368 C198.265401,57.4315826 198.044234,58.199996 198,59 L212,59 Z M222,62.8962264 L222,64.2169811 C222,64.6572349 221.978163,65.0754697 221.934489,65.4716981 L198.285164,65.4716981 C198.372512,66.396231 198.64547,67.2327007 199.104046,67.9811321 C199.562623,68.7295635 200.152212,69.3789281 200.872832,69.9292453 C201.593453,70.4795625 202.401408,70.9088035 203.296724,71.2169811 C204.19204,71.5251588 205.120098,71.6792453 206.080925,71.6792453 C207.784209,71.6792453 209.225428,71.3600661 210.404624,70.7216981 C211.583821,70.0833301 212.544633,69.2578667 213.287091,68.245283 L220.755299,73 C219.22671,75.2452942 217.206821,76.9732644 214.695568,78.1839623 C212.184316,79.3946601 209.269124,80 205.949904,80 C203.504162,80 201.189478,79.6147837 199.00578,78.8443396 C196.822083,78.0738955 194.911376,76.9512652 193.273603,75.4764151 C191.63583,74.001565 190.347468,72.1855454 189.408478,70.0283019 C188.469488,67.8710584 188,65.4056742 188,62.6320755 C188,59.9465275 188.45857,57.5141618 189.375723,55.3349057 C190.292875,53.1556495 191.537564,51.3066114 193.109827,49.7877358 C194.682089,48.2688603 196.538204,47.0911992 198.678227,46.254717 C200.818251,45.4182348 203.132936,45 205.622351,45 C208.024418,45 210.229919,45.4072286 212.238921,46.2216981 C214.247923,47.0361676 215.973018,48.2138288 217.414258,49.754717 C218.855499,51.2956052 219.980086,53.1666557 220.788054,55.3679245 C221.596022,57.5691934 222,60.0786023 222,62.8962264 Z M248,65 L246.672414,65 C245.534477,65 244.386021,65.0560218 243.227011,65.1680672 C242.068002,65.2801126 241.035445,65.4929956 240.12931,65.8067227 C239.223176,66.1204497 238.475099,66.5798289 237.885057,67.1848739 C237.295016,67.789919 237,68.5854292 237,69.5714286 C237,70.1988827 237.136972,70.7366924 237.41092,71.1848739 C237.684867,71.6330555 238.032565,71.9915953 238.454023,72.2605042 C238.875481,72.5294131 239.360151,72.7198874 239.908046,72.8319328 C240.455941,72.9439782 240.982756,73 241.488506,73 C243.595796,73 245.207849,72.3837597 246.324713,71.1512605 C247.441576,69.9187613 248,68.2493103 248,66.1428571 L248,65 Z M228.566316,50.5893536 C230.480711,48.7262264 232.710514,47.328902 235.255789,46.3973384 C237.801065,45.4657748 240.400688,45 243.054737,45 C245.795803,45 248.112622,45.3437862 250.005263,46.0313688 C251.897904,46.7189515 253.431573,47.7835796 254.606316,49.2252852 C255.781059,50.6669907 256.640348,52.4857305 257.184211,54.6815589 C257.728073,56.8773874 258,59.4835084 258,62.5 L258,79.2015209 L248.210526,79.2015209 L248.210526,75.6749049 L248.014737,75.6749049 C247.188066,77.0500702 245.937201,78.1146984 244.262105,78.8688213 C242.587009,79.6229442 240.770536,80 238.812632,80 C237.507362,80 236.158603,79.822562 234.766316,79.4676806 C233.374028,79.1127992 232.101409,78.5361257 230.948421,77.7376426 C229.795433,76.9391595 228.849127,75.8745314 228.109474,74.5437262 C227.369821,73.2129211 227,71.5716194 227,69.6197719 C227,67.2243226 227.641748,65.2946841 228.925263,63.8307985 C230.208778,62.3669128 231.862095,61.2357454 233.885263,60.4372624 C235.908431,59.6387793 238.159988,59.1064652 240.64,58.8403042 C243.120012,58.5741432 245.534725,58.4410646 247.884211,58.4410646 L247.884211,57.9087452 C247.884211,56.2674189 247.318602,55.0586224 246.187368,54.2823194 C245.056135,53.5060164 243.663868,53.1178707 242.010526,53.1178707 C240.487712,53.1178707 239.019305,53.450567 237.605263,54.1159696 C236.191221,54.7813721 234.983865,55.5798433 233.983158,56.5114068 L228.566316,50.5893536 Z M266,79 L266,29 L277,29 L277,79 L266,79 Z M305.013761,55.7641509 C304.126907,54.9276688 303.084868,54.2232733 301.887615,53.6509434 C300.690361,53.0786135 299.426612,52.7924528 298.09633,52.7924528 C297.076447,52.7924528 296.134179,52.9905641 295.269495,53.3867925 C294.404812,53.7830208 293.972477,54.465404 293.972477,55.4339623 C293.972477,56.3584952 294.449154,57.0188659 295.402523,57.4150943 C296.355892,57.8113227 297.896778,58.2515699 300.025229,58.7358491 C301.266826,59.0000013 302.519489,59.3742114 303.783257,59.8584906 C305.047025,60.3427697 306.188833,60.9811281 307.208716,61.7735849 C308.228598,62.5660417 309.048927,63.5345855 309.669725,64.6792453 C310.290523,65.8239051 310.600917,67.1886713 310.600917,68.7735849 C310.600917,70.8427776 310.179668,72.5927601 309.337156,74.0235849 C308.494644,75.4544097 307.397178,76.6100585 306.044725,77.490566 C304.692272,78.3710736 303.173556,79.009432 301.488532,79.4056604 C299.803508,79.8018888 298.11851,80 296.433486,80 C293.72858,80 291.079141,79.570759 288.485092,78.7122642 C285.891042,77.8537693 283.729366,76.5880587 282,74.9150943 L288.119266,68.509434 C289.094806,69.566043 290.292042,70.4465374 291.711009,71.1509434 C293.129977,71.8553494 294.637607,72.2075472 296.233945,72.2075472 C297.1208,72.2075472 297.996555,71.9984298 298.861239,71.5801887 C299.725922,71.1619476 300.158257,70.4245336 300.158257,69.3679245 C300.158257,68.3553408 299.626152,67.6069207 298.561927,67.1226415 C297.497701,66.6383624 295.834874,66.1320781 293.573394,65.6037736 C292.420484,65.3396213 291.26759,64.9874236 290.114679,64.5471698 C288.961768,64.106916 287.930815,63.5125824 287.021789,62.7641509 C286.112763,62.0157195 285.370033,61.0912005 284.793578,59.990566 C284.217122,58.8899316 283.928899,57.5691901 283.928899,56.0283019 C283.928899,54.0471599 284.350149,52.3632145 285.192661,50.9764151 C286.035172,49.5896157 287.121553,48.4559792 288.451835,47.5754717 C289.782117,46.6949642 291.25649,46.0455996 292.875,45.6273585 C294.49351,45.2091174 296.100909,45 297.697248,45 C300.180441,45 302.608169,45.3852163 304.980505,46.1556604 C307.352841,46.9261045 309.359319,48.0817533 311,49.6226415 L305.013761,55.7641509 Z M328.134454,54.6427457 L328.134454,67.0920437 C328.134454,68.6209125 328.436972,69.7675469 329.042017,70.5319813 C329.647062,71.2964157 330.733886,71.6786271 332.302521,71.6786271 C332.840339,71.6786271 333.411762,71.6349458 334.016807,71.5475819 C334.621852,71.460218 335.126048,71.329174 335.529412,71.1544462 L335.663866,79.0171607 C334.901957,79.2792525 333.938381,79.5085794 332.773109,79.7051482 C331.607837,79.9017171 330.442583,80 329.277311,80 C327.036403,80 325.154069,79.7269918 323.630252,79.1809672 C322.106435,78.6349427 320.885159,77.8486791 319.966387,76.8221529 C319.047614,75.7956267 318.386557,74.57255 317.983193,73.1528861 C317.57983,71.7332222 317.378151,70.1497747 317.378151,68.4024961 L317.378151,54.6427457 L312,54.6427457 L312,46.5834633 L317.310924,46.5834633 L317.310924,38 L328.134454,38 L328.134454,46.5834633 L336,46.5834633 L336,54.6427457 L328.134454,54.6427457 Z M360,65 L358.672414,65 C357.534477,65 356.386021,65.0560218 355.227011,65.1680672 C354.068002,65.2801126 353.035445,65.4929956 352.12931,65.8067227 C351.223176,66.1204497 350.475099,66.5798289 349.885057,67.1848739 C349.295016,67.789919 349,68.5854292 349,69.5714286 C349,70.1988827 349.136972,70.7366924 349.41092,71.1848739 C349.684867,71.6330555 350.032565,71.9915953 350.454023,72.2605042 C350.875481,72.5294131 351.360151,72.7198874 351.908046,72.8319328 C352.455941,72.9439782 352.982756,73 353.488506,73 C355.595796,73 357.207849,72.3837597 358.324713,71.1512605 C359.441576,69.9187613 360,68.2493103 360,66.1428571 L360,65 Z M340.566316,50.5893536 C342.480711,48.7262264 344.710514,47.328902 347.255789,46.3973384 C349.801065,45.4657748 352.400688,45 355.054737,45 C357.795803,45 360.112622,45.3437862 362.005263,46.0313688 C363.897904,46.7189515 365.431573,47.7835796 366.606316,49.2252852 C367.781059,50.6669907 368.640348,52.4857305 369.184211,54.6815589 C369.728073,56.8773874 370,59.4835084 370,62.5 L370,79.2015209 L360.210526,79.2015209 L360.210526,75.6749049 L360.014737,75.6749049 C359.188066,77.0500702 357.937201,78.1146984 356.262105,78.8688213 C354.587009,79.6229442 352.770536,80 350.812632,80 C349.507362,80 348.158603,79.822562 346.766316,79.4676806 C345.374028,79.1127992 344.101409,78.5361257 342.948421,77.7376426 C341.795433,76.9391595 340.849127,75.8745314 340.109474,74.5437262 C339.369821,73.2129211 339,71.5716194 339,69.6197719 C339,67.2243226 339.641748,65.2946841 340.925263,63.8307985 C342.208778,62.3669128 343.862095,61.2357454 345.885263,60.4372624 C347.908431,59.6387793 350.159988,59.1064652 352.64,58.8403042 C355.120012,58.5741432 357.534725,58.4410646 359.884211,58.4410646 L359.884211,57.9087452 C359.884211,56.2674189 359.318602,55.0586224 358.187368,54.2823194 C357.056135,53.5060164 355.663868,53.1178707 354.010526,53.1178707 C352.487712,53.1178707 351.019305,53.450567 349.605263,54.1159696 C348.191221,54.7813721 346.983865,55.5798433 345.983158,56.5114068 L340.566316,50.5893536 Z M389.134454,54.6427457 L389.134454,67.0920437 C389.134454,68.6209125 389.436972,69.7675469 390.042017,70.5319813 C390.647062,71.2964157 391.733886,71.6786271 393.302521,71.6786271 C393.840339,71.6786271 394.411762,71.6349458 395.016807,71.5475819 C395.621852,71.460218 396.126048,71.329174 396.529412,71.1544462 L396.663866,79.0171607 C395.901957,79.2792525 394.938381,79.5085794 393.773109,79.7051482 C392.607837,79.9017171 391.442583,80 390.277311,80 C388.036403,80 386.154069,79.7269918 384.630252,79.1809672 C383.106435,78.6349427 381.885159,77.8486791 380.966387,76.8221529 C380.047614,75.7956267 379.386557,74.57255 378.983193,73.1528861 C378.57983,71.7332222 378.378151,70.1497747 378.378151,68.4024961 L378.378151,54.6427457 L373,54.6427457 L373,46.5834633 L378.310924,46.5834633 L378.310924,38 L389.134454,38 L389.134454,46.5834633 L397,46.5834633 L397,54.6427457 L389.134454,54.6427457 Z M421.013761,55.7641509 C420.126907,54.9276688 419.084868,54.2232733 417.887615,53.6509434 C416.690361,53.0786135 415.426612,52.7924528 414.09633,52.7924528 C413.076448,52.7924528 412.134179,52.9905641 411.269495,53.3867925 C410.404812,53.7830208 409.972477,54.465404 409.972477,55.4339623 C409.972477,56.3584952 410.449154,57.0188659 411.402523,57.4150943 C412.355892,57.8113227 413.896778,58.2515699 416.025229,58.7358491 C417.266826,59.0000013 418.519489,59.3742114 419.783257,59.8584906 C421.047025,60.3427697 422.188833,60.9811281 423.208716,61.7735849 C424.228598,62.5660417 425.048927,63.5345855 425.669725,64.6792453 C426.290523,65.8239051 426.600917,67.1886713 426.600917,68.7735849 C426.600917,70.8427776 426.179668,72.5927601 425.337156,74.0235849 C424.494644,75.4544097 423.397178,76.6100585 422.044725,77.490566 C420.692272,78.3710736 419.173556,79.009432 417.488532,79.4056604 C415.803508,79.8018888 414.11851,80 412.433486,80 C409.72858,80 407.079141,79.570759 404.485092,78.7122642 C401.891042,77.8537693 399.729366,76.5880587 398,74.9150943 L404.119266,68.509434 C405.094806,69.566043 406.292042,70.4465374 407.711009,71.1509434 C409.129977,71.8553494 410.637607,72.2075472 412.233945,72.2075472 C413.1208,72.2075472 413.996555,71.9984298 414.861239,71.5801887 C415.725922,71.1619476 416.158257,70.4245336 416.158257,69.3679245 C416.158257,68.3553408 415.626152,67.6069207 414.561927,67.1226415 C413.497701,66.6383624 411.834874,66.1320781 409.573394,65.6037736 C408.420484,65.3396213 407.26759,64.9874236 406.114679,64.5471698 C404.961768,64.106916 403.930815,63.5125824 403.021789,62.7641509 C402.112763,62.0157195 401.370033,61.0912005 400.793578,59.990566 C400.217123,58.8899316 399.928899,57.5691901 399.928899,56.0283019 C399.928899,54.0471599 400.350149,52.3632145 401.192661,50.9764151 C402.035172,49.5896157 403.121553,48.4559792 404.451835,47.5754717 C405.782117,46.6949642 407.25649,46.0455996 408.875,45.6273585 C410.49351,45.2091174 412.100909,45 413.697248,45 C416.180441,45 418.608169,45.3852163 420.980505,46.1556604 C423.352841,46.9261045 425.359319,48.0817533 427,49.6226415 L421.013761,55.7641509 Z" id="Sealstats" fill="#FFFFFF" fill-rule="nonzero"></path>
                <g id="Group-5">
                    <circle id="Oval-3" fill="#FFFFFF" cx="55" cy="55" r="55"></circle>
                    <path d="M22,70.9985084 L22,87.2630153 C34.9381606,88.8865101 44.201016,87.8277219 49.7885662,84.0866505 C58.1698915,78.4750434 63.4105223,51.9063646 69.9060771,46.0465784 C74.2364469,42.1400542 80.2677546,40.6436192 88,41.5572732 L88,22.4316143 C77.2992848,21.6236423 70.5813649,21.9500489 67.8462404,23.4108341 C66.2803932,24.2471274 61.1042324,25.6735995 56.0591582,32.768571 C54.6300599,34.7783358 52.7959105,39.2043382 50.55671,46.0465784 C48.5934953,51.3080128 47.2773451,54.9218953 46.6082595,56.8882258 C44.5319836,62.9900525 42.3520111,66.7529831 41.9002822,67.6376492 C40.1477584,71.0697928 33.514331,72.1900792 22,70.9985084 Z" id="Path-5" fill="#2B313A"></path>
                </g>
            </g>
        </g>
    </g>
</svg>