<?xml version="1.0" encoding="UTF-8"?>
<svg width="700px" height="500px" viewBox="0 0 700 500" version="1.1" xmlns="http://www.w3.org/2000/svg" xmlns:xlink="http://www.w3.org/1999/xlink">
    <!-- Generator: Sketch 47.1 (45422) - http://www.bohemiancoding.com/sketch -->
    <title>Golo</title>
    <desc>Created with Sketch.</desc>
    <defs>
        <rect id="path-1" x="0" y="0" width="700" height="500"></rect>
        <linearGradient x1="34.2249811%" y1="-20.6784311%" x2="34.2249548%" y2="121.08483%" id="linearGradient-3">
            <stop stop-color="#FFFFFF" stop-opacity="0" offset="0%"></stop>
            <stop stop-color="#E4EFFF" stop-opacity="0" offset="29.154626%"></stop>
            <stop stop-color="#5EA1FF" offset="52.3171429%"></stop>
            <stop stop-color="#FFFFFF" stop-opacity="0" offset="81.5950603%"></stop>
            <stop stop-color="#5EA1FF" stop-opacity="0" offset="100%"></stop>
        </linearGradient>
        <path d="M382.704819,669 C380.445775,669 378.614458,667.169138 378.614458,664.910656 C378.614458,662.652173 380.445775,660.821311 382.704819,660.821311 C384.963864,660.821311 386.795181,662.652173 386.795181,664.910656 C386.795181,667.169138 384.963864,669 382.704819,669 Z M552.552384,549.932215 C550.29334,549.932215 548.462022,548.101353 548.462022,545.842871 C548.462022,543.584388 550.29334,541.753527 552.552384,541.753527 C554.811428,541.753527 556.642745,543.584388 556.642745,545.842871 C556.642745,548.101353 554.811428,549.932215 552.552384,549.932215 Z M316.090361,483.226932 C313.831317,483.226932 312,481.39607 312,479.137588 C312,476.879105 313.831317,475.048243 316.090361,475.048243 C318.349406,475.048243 320.180723,476.879105 320.180723,479.137588 C320.180723,481.39607 318.349406,483.226932 316.090361,483.226932 Z M373.988733,235.178689 C371.729689,235.178689 369.898372,233.347827 369.898372,231.089344 C369.898372,228.830862 371.729689,227 373.988733,227 C376.247778,227 378.079095,228.830862 378.079095,231.089344 C378.079095,233.347827 376.247778,235.178689 373.988733,235.178689 Z M504.110511,418.784912 C501.851467,418.784912 500.02015,416.954051 500.02015,414.695568 C500.02015,412.437086 501.851467,410.606224 504.110511,410.606224 C506.369556,410.606224 508.200873,412.437086 508.200873,414.695568 C508.200873,416.954051 506.369556,418.784912 504.110511,418.784912 Z M693.572289,553.329976 C691.313245,553.329976 689.481928,551.499115 689.481928,549.240632 C689.481928,546.98215 691.313245,545.151288 693.572289,545.151288 C695.831333,545.151288 697.662651,546.98215 697.662651,549.240632 C697.662651,551.499115 695.831333,553.329976 693.572289,553.329976 Z M889.909639,291.611943 C887.650594,291.611943 885.819277,289.781082 885.819277,287.522599 C885.819277,285.264117 887.650594,283.433255 889.909639,283.433255 C892.168683,283.433255 894,285.264117 894,287.522599 C894,289.781082 892.168683,291.611943 889.909639,291.611943 Z M709.933735,441.165105 C707.674691,441.165105 705.843373,439.334243 705.843373,437.075761 C705.843373,434.817278 707.674691,432.986417 709.933735,432.986417 C712.192779,432.986417 714.024096,434.817278 714.024096,437.075761 C714.024096,439.334243 712.192779,441.165105 709.933735,441.165105 Z M695.909639,284.601639 C693.650594,284.601639 691.819277,282.770777 691.819277,280.512295 C691.819277,278.253812 693.650594,276.42295 695.909639,276.42295 C698.168683,276.42295 700,278.253812 700,280.512295 C700,282.770777 698.168683,284.601639 695.909639,284.601639 Z M880.560241,617.591101 C878.301197,617.591101 876.46988,615.760239 876.46988,613.501756 C876.46988,611.243274 878.301197,609.412412 880.560241,609.412412 C882.819285,609.412412 884.650602,611.243274 884.650602,613.501756 C884.650602,615.760239 882.819285,617.591101 880.560241,617.591101 Z" id="path-4"></path>
        <filter x="-2.1%" y="-2.7%" width="104.1%" height="105.4%" filterUnits="objectBoundingBox" id="filter-5">
            <feOffset dx="0" dy="0" in="SourceAlpha" result="shadowOffsetOuter1"></feOffset>
            <feGaussianBlur stdDeviation="4" in="shadowOffsetOuter1" result="shadowBlurOuter1"></feGaussianBlur>
            <feColorMatrix values="0 0 0 0 0.988235294   0 0 0 0 0.439215686   0 0 0 0 0.239215686  0 0 0 1 0" type="matrix" in="shadowBlurOuter1"></feColorMatrix>
        </filter>
    </defs>
    <g id="Page-2" stroke="none" stroke-width="1" fill="none" fill-rule="evenodd">
        <g id="Golo">
            <g id="grid">
                <mask id="mask-2" fill="white">
                    <use xlink:href="#path-1"></use>
                </mask>
                <use id="Mask" fill="#260063" xlink:href="#path-1"></use>
                <g opacity="0.75" mask="url(#mask-2)" id="Combined-Shape">
                    <g transform="translate(182.000000, -120.000000)">
                        <path d="M572.185385,314.760847 L543.053632,334.91752 L542.388148,333.955847 L571.50984,313.806447 L467.007791,166.167331 L467.962411,165.491722 L572.471636,313.140977 L606.070802,289.893597 L510.217308,154.473046 L511.171928,153.797436 L607.032598,289.228127 L678.474051,239.797537 L622.603681,160.011693 L623.561706,159.340921 L679.435808,239.132095 L715.160206,214.414259 L678.463205,162.304518 L679.419442,161.631201 L716.086682,213.698681 C724.71203,206.614997 729.338193,199.660068 730.006247,192.848762 C730.696085,185.815363 728.803313,177.745134 724.311651,168.639088 L725.360538,168.121781 C729.941627,177.409123 731.883606,185.68916 731.170196,192.962907 C730.46621,200.14056 725.659885,207.358721 716.760832,214.655973 L741.194832,249.352253 L795.568513,211.281926 L760.189607,160.758976 L761.147632,160.088204 L796.526538,210.611155 L852.091995,171.706394 L846.899826,164.291703 L847.857851,163.620931 L853.05002,171.035622 L873.168547,156.949416 L932.374753,241.499011 L931.416728,242.169783 L872.881338,158.578149 L853.720836,171.993584 L931.039085,282.408135 L930.08106,283.078906 L886.554764,220.921052 C877.504489,227.454762 872.693227,235.489889 872.081259,245.056825 C871.690397,251.167188 874.407354,257.294878 881.943361,269.878621 C882.114874,270.165017 882.259569,270.406404 882.575932,270.934029 C890.161531,283.585645 892.68812,288.961147 892.688938,294.835396 C892.689834,301.265075 889.661714,307.75046 884.599463,313.982123 C882.798741,316.198822 880.848447,318.242396 878.887221,320.054694 C877.598058,321.245963 876.342604,322.28898 875.871248,322.619005 L875.260128,323.046887 L930.876113,402.469456 L929.918088,403.140228 L874.302103,323.717659 L820.227473,361.578601 L932.268648,520.677068 L942.329184,513.633074 L943,514.591035 L902.762946,542.763448 L894.466509,546.207315 L939.522641,610.549855 L938.564615,611.220627 L920.790974,585.838926 L882.272409,614.426551 L930.136732,682.779337 L929.178706,683.450108 L881.332932,615.123811 L852.73283,636.350172 L911.840129,719.856184 L910.88551,720.531794 L851.793472,637.047343 L818.97816,661.40214 L868.630612,731.550469 L867.675993,732.226079 L818.038802,662.099311 L788.32469,684.152466 L820.917893,730.697284 L819.959868,731.368056 L787.385213,684.849725 L757.321943,707.162018 L765.153674,718.346144 L764.195649,719.016916 L756.382466,707.859277 L728.596254,728.481588 L735.596011,738.322174 L734.642964,739 L727.656943,729.178724 L717.407146,736.785896 L716.710107,735.84684 L726.978932,728.225545 L701.06314,691.79191 L673.72483,713.119518 L673.005422,712.197484 L700.384603,690.837991 L632.279132,595.092131 L603.457321,615.272038 L679.063413,720.796016 L678.112693,721.4771 L602.499239,615.942848 L570.521174,638.33264 L625.550762,714.718589 L624.601811,715.402136 L596.909233,676.962382 L561.821143,701.529692 L579.830788,710.713581 L579.299458,711.755383 L560.736319,702.289243 L513.131553,735.62024 L436.486448,630.259069 L354.457004,687.69288 L371.191315,714.40213 L370.20022,715.023004 L353.497722,688.364532 L344.238634,694.847384 L352.890451,708.65635 L351.899355,709.277224 L343.279352,695.519035 L322.129421,710.327391 L321.458604,709.369429 L342.657622,694.526706 L309.062822,640.906817 L243.829979,687.445411 L258.908191,713.09058 L257.89999,713.683278 L242.874207,688.127281 L209.544063,711.905764 L208.8648,710.953772 L242.279155,687.115211 L227.304193,661.645653 L151.723915,715.984305 L151.041177,715.034802 L226.708945,660.633249 L220.764415,650.522735 L145.30296,704.775958 L144.620221,703.826456 L220.169167,649.510331 L206.037952,625.475826 L185.019312,640.192257 L184.348495,639.234295 L270.306988,579.049518 L0,147.618737 L0.991095497,146.997862 L271.266269,578.377867 L280.525358,571.895015 L18.3008643,153.364517 L19.2919598,152.743642 L92.6954507,269.90127 L202.805551,207.550697 L173.060454,166.404627 L174.00828,165.719521 L404.757555,484.912486 L440.516536,459.875445 L216.460218,148.865402 L217.409169,148.181855 L375.67971,367.875405 L408.366039,344.989715 L268.389464,149.623382 L269.340184,148.942298 L351.09859,263.053104 L380.808453,241.562873 L321.469254,158.141048 L322.422301,157.463222 L505.278793,414.531443 L535.515574,393.360831 L262.895833,0.666882892 L263.856569,0 L519.640175,368.442407 L549.190045,347.752743 L549.860861,348.710705 L520.307108,369.403088 L536.473607,392.690054 L567.077888,371.262132 L417.854389,159.179033 L418.810905,158.506111 L568.035916,370.591359 L597.233433,350.148399 L572.185385,314.760847 Z M573.147176,314.09537 L598.19147,349.477618 L631.65933,326.044731 L606.746172,290.84775 L573.147176,314.09537 L573.147176,314.09537 Z M607.707963,290.182273 L632.617367,325.373951 L703.598103,275.676013 L679.144192,240.754534 L607.707963,290.182273 Z M680.105944,240.089085 L704.556128,275.005242 L740.236804,250.023027 L715.832717,215.369225 L680.105944,240.089085 L680.105944,240.089085 Z M658.124917,361.41068 L728.261707,310.896945 L704.26892,276.633975 L633.29303,326.328518 L658.124917,361.41068 L658.124917,361.41068 Z M658.800594,362.365268 L711.244146,436.456827 L741.423822,415.326197 L741.350114,415.220939 L742.308139,414.550167 L742.381847,414.655426 L781.660876,387.153784 L728.932583,311.854991 L658.800594,362.365268 L658.800594,362.365268 Z M652.75797,426.568449 L676.818249,460.560494 L710.286109,437.127607 L686.225829,403.135562 L652.75797,426.568449 L652.75797,426.568449 Z M652.082307,425.613881 L685.550166,402.180994 L632.334993,326.999299 L598.867133,350.432186 L652.082307,425.613881 L652.082307,425.613881 Z M259.175997,403.762248 L207.894767,328.273383 L264.515175,292.912948 L203.494918,208.50429 L93.3169792,270.893277 L201.753899,443.966957 L259.175997,403.762248 L259.175997,403.762248 Z M259.833224,404.729724 L202.375629,444.959286 L281.48464,571.223363 L364.457215,513.129208 L337.463514,474.580774 L336.984501,474.91616 C329.189291,480.374062 322.800562,482.406194 317.802091,480.94083 C312.851059,479.489372 307.240767,474.237621 300.905276,465.190101 L259.833224,404.729724 L259.833224,404.729724 Z M849.38186,443.085287 L887.306517,497.243704 L886.348491,497.914475 L848.423835,443.756058 L831.179383,455.82995 L893.788287,545.238778 L902.144711,541.768671 L931.310619,521.347842 L867.341007,430.510994 L849.38186,443.085287 L849.38186,443.085287 Z M830.508566,454.871988 L866.667642,429.554816 L819.269444,362.249376 L783.289718,387.440974 L830.508566,454.871988 L830.508566,454.871988 Z M796.308859,491.666053 L835.587889,464.164412 L823.513194,446.921108 L784.234164,474.422749 L796.308859,491.666053 L796.308859,491.666053 Z M796.979676,492.624015 L853.640508,573.538681 L892.122787,545.930396 L892.682191,545.698097 L836.258705,465.122373 L796.979676,492.624015 L796.979676,492.624015 Z M783.563348,473.464788 L822.842377,445.963147 L782.331693,388.111746 L743.052663,415.613387 L783.563348,473.464788 L783.563348,473.464788 Z M852.762811,172.664355 L797.197355,211.569116 L874.589312,322.088926 L875.200431,321.661044 C875.623016,321.365166 876.839939,320.354161 878.093464,319.195824 C880.015952,317.419322 881.928349,315.415458 883.691679,313.244789 C888.600317,307.202223 891.520257,300.94853 891.519405,294.835559 C891.51863,289.268166 889.02849,283.970213 881.572861,271.535366 C881.256465,271.007686 881.111637,270.766077 880.939977,270.479436 C873.267809,257.668331 870.50168,251.429739 870.914111,244.982176 C871.549768,235.044901 876.552957,226.695024 885.883884,219.963 L852.762811,172.664355 L852.762811,172.664355 Z M796.23933,212.239888 L741.868196,250.30843 L819.554108,360.622424 L873.631287,322.759698 L796.23933,212.239888 L796.23933,212.239888 Z M740.910168,250.979204 L705.226945,275.963203 L782.618901,386.483013 L818.59608,361.293198 L740.910168,250.979204 L740.910168,250.979204 Z M920.119901,584.880599 L893.360317,546.666497 L892.749649,546.919987 L854.311369,574.496706 L881.601336,613.468224 L920.119901,584.880599 L920.119901,584.880599 Z M742.094638,416.284159 L711.919809,437.411395 L823.552542,595.124646 L852.690193,574.220464 L742.094638,416.284159 L742.094638,416.284159 Z M853.361054,575.178489 L824.228211,596.079222 L852.057003,635.395373 L880.661859,614.165483 L853.361054,575.178489 L853.361054,575.178489 Z M727.918243,727.52841 L755.711393,706.90095 L727.636155,666.808024 L727.493656,671.172505 L701.98614,691.071844 L727.918243,727.52841 L727.918243,727.52841 Z M851.117646,636.092544 L823.277939,596.760974 L790.081371,620.577139 L818.302333,660.447341 L851.117646,636.092544 L851.117646,636.092544 Z M817.362975,661.144512 L789.1311,621.25889 L759.279911,642.674985 L787.653618,683.194139 L817.362975,661.144512 L817.362975,661.144512 Z M786.71414,683.891398 L758.329597,643.356767 L727.91953,665.173817 L756.65087,706.203691 L786.71414,683.891398 L786.71414,683.891398 Z M645.621311,482.403371 L645.547603,482.298112 L646.505628,481.627341 L646.579336,481.732599 L675.860212,461.231275 L597.909096,351.102966 L537.14054,393.650734 L614.084444,504.484253 L645.621311,482.403371 L645.621311,482.403371 Z M647.250153,482.690561 L694.469001,550.121575 L724.095881,529.377992 L676.535875,462.185843 L647.250153,482.690561 L647.250153,482.690561 Z M646.292127,483.361332 L614.751377,505.444933 L661.696856,573.06735 L693.510976,550.792347 L646.292127,483.361332 L646.292127,483.361332 Z M695.139817,551.079536 L758.609051,641.71696 L788.455431,620.304315 L724.771544,530.33256 L695.139817,551.079536 Z M694.181792,551.750308 L633.237184,594.421341 L701.307603,690.117925 L726.34261,670.587208 L726.533892,664.728594 L757.658736,642.398743 L694.181792,551.750308 L694.181792,551.750308 Z M822.602271,595.806398 L710.961772,438.082175 L677.493912,461.515062 L789.405703,619.622563 L822.602271,595.806398 L822.602271,595.806398 Z M519.05193,645.010877 L484.224634,596.834657 L437.444629,629.588189 L472.80164,678.192155 L519.05193,645.010877 Z M519.737086,645.958646 L473.489621,679.137897 L513.401656,734.003484 L559.867166,701.470149 L519.737086,645.958646 Z M520.687344,645.276904 L560.8253,700.799302 L596.225579,676.013409 L520.756902,571.256191 L485.182768,596.163809 L520.002188,644.329135 L555.066888,619.172719 L555.748671,620.122907 L520.687344,645.276904 L520.687344,645.276904 Z M243.234927,686.433342 L308.440786,639.913999 L270.928718,580.041848 L206.999004,624.802935 L243.234927,686.433342 L243.234927,686.433342 Z M352.875992,687.372202 L319.222515,633.65866 L310.016595,640.226373 L343.616904,693.855054 L352.875992,687.372202 L352.875992,687.372202 Z M353.835274,686.700551 L483.539405,595.886787 L404.48465,486.531204 L282.10637,572.215693 L301.852479,603.732004 L426.191153,516.674923 L426.861969,517.632885 L302.474209,604.724333 L319.554252,631.985399 L444.347972,542.954719 L445.027235,543.906711 L320.176289,632.978217 L353.835274,686.700551 L353.835274,686.700551 Z M281.147088,572.887344 L271.888,579.370196 L309.394559,639.233555 L318.600479,632.665842 L281.147088,572.887344 Z M365.41524,512.458437 L403.799421,485.583334 L376.225749,447.440972 L338.421539,473.910002 L365.41524,512.458437 L365.41524,512.458437 Z M375.54052,446.493102 L265.201896,293.862883 L209.545103,328.621523 L301.86801,464.526157 C308.059133,473.367409 313.500583,478.461109 318.131127,479.818611 C322.714233,481.162206 328.780493,479.232645 336.313685,473.958199 L375.54052,446.493102 Z M660.738823,573.738127 L613.793344,506.115711 L584.842562,526.385916 L632.559294,593.468332 L660.738823,573.738127 Z M631.601243,594.139122 L583.884511,527.056706 L554.828573,547.400538 L602.776151,614.321325 L631.601243,594.139122 Z M601.81807,614.992136 L553.870492,548.071349 L521.715013,570.585359 L569.83752,637.383667 L601.81807,614.992136 L601.81807,614.992136 Z M458.368297,412.770222 L474.879887,435.81557 L504.320742,415.202233 L381.486346,242.515886 L351.779726,264.003772 L409.32412,344.318904 L409.59167,344.131576 L410.262486,345.089538 L410.005289,345.269617 L457.687128,411.81951 L458.17766,411.476058 L458.848476,412.43402 L458.368297,412.770222 L458.368297,412.770222 Z M456.729047,412.49032 L409.047208,345.940428 L376.363365,368.824378 L424.219163,435.252471 L456.729047,412.49032 L456.729047,412.49032 Z M457.410216,413.441033 L424.902817,436.201443 L441.474647,459.204613 L473.921806,436.48638 L457.410216,413.441033 L457.410216,413.441033 Z M536.182507,394.321511 L505.956683,415.484452 L584.164673,525.432907 L613.126411,505.15503 L536.182507,394.321511 L536.182507,394.321511 Z M583.206622,526.103697 L504.998632,416.155242 L475.561056,436.766282 L554.147404,546.449826 L583.206622,526.103697 L583.206622,526.103697 Z M474.602975,437.437093 L442.158301,460.153586 L521.031359,569.636386 L553.189323,547.120636 L474.602975,437.437093 L474.602975,437.437093 Z M520.073248,570.307218 L441.20019,460.824418 L405.442784,485.860356 L484.497539,595.215939 L520.073248,570.307218 Z" fill="url(#linearGradient-3)" fill-rule="nonzero" opacity="0.75"></path>
                        <g fill="none">
                            <use fill="black" fill-opacity="1" filter="url(#filter-5)" xlink:href="#path-4"></use>
                            <use fill="#FC703D" fill-rule="evenodd" xlink:href="#path-4"></use>
                        </g>
                    </g>
                </g>
            </g>
            <g id="Logo" transform="translate(190.000000, 212.000000)">
                <path d="M72.9261184,32.5271071 L37.4591233,32.5271071 C37.090046,32.5271071 36.7921161,32.8318639 36.7921161,33.2093985 L36.7921161,47.7001314 C36.7921161,48.0765289 37.090046,48.3824229 37.4591233,48.3824229 L53.2627467,48.3824229 C51.1105369,54.7720822 46.2424962,57.7559701 38.0194093,57.7559701 C29.6251239,57.7559701 21.1563561,51.8098002 21.1563561,38.5255859 C21.1563561,27.5406938 27.9642761,19.8694638 37.7136977,19.8694638 C43.1720398,19.8694638 47.3475047,21.512649 50.8515158,25.04237 C51.1116486,25.3039151 51.5285281,25.3039151 51.7875492,25.04237 L65.4445212,11.2805517 C65.5701409,11.1531907 65.6424,10.9792064 65.6435117,10.7983991 C65.6446234,10.6175919 65.5745876,10.4424704 65.4500796,10.3139722 C58.8144698,3.4705891 49.8765736,0 38.885407,0 C15.9903855,0 0,15.8428071 0,38.5255859 C0,61.1787988 15.9903855,77 38.885407,77 C56.3354265,77 74,64.2138585 74,39.7764536 C74,37.6988761 73.9499745,35.4507259 73.5842322,33.101369 C73.533095,32.7704577 73.2540636,32.5271071 72.9261184,32.5271071" id="Fill-1" fill="#FFFFFF"></path>
                <path d="M224.333522,57.4818123 L190.680818,57.4818123 L190.680818,3.67916909 C190.680818,3.30336219 190.382013,3 190.014339,3 L170.665367,3 C170.297694,3 170,3.30336219 170,3.67916909 L170,76.3219629 C170,76.6966378 170.297694,77 170.665367,77 L224.333522,77 C224.701196,77 225,76.6966378 225,76.3219629 L225,58.1609814 C225,57.7851745 224.701196,57.4818123 224.333522,57.4818123" id="Fill-3" fill="#FFFFFF"></path>
                <path d="M243.201599,7.852456 C260.128014,-5.0148158 284.279852,-1.72482919 297.147027,15.2017123 C310.01536,32.127097 306.724241,56.2802722 289.798983,69.147544 C272.872568,82.0148158 248.72073,78.7248292 235.852397,61.7982877 C222.985222,44.872903 226.275184,20.7197278 243.201599,7.852456 Z M254.966097,23.5016248 C246.986918,29.5672222 245.436012,40.9537591 251.501649,48.9328876 C257.567285,56.9131566 268.953895,58.4640519 276.933074,52.3984546 C284.913394,46.3317168 286.4643,34.9451799 280.397523,26.9660514 C274.331887,18.9869228 262.945277,17.4360275 254.966097,23.5016248 Z" id="Combined-Shape" fill="#FFFFFF"></path>
                <path d="M291,2.08850827 C295.33211,5.15889265 299.21046,9.18920534 302.335671,14.1505676 C305.254343,18.7850229 307.226898,23.8249353 308.381641,29 L320,0 L291,2.08850827 Z" id="Fill-7" fill="#5EA1FF"></path>
                <path d="M119.5,56.6755365 C109.509472,56.6755365 102.531271,49.2014522 102.531271,38.5 C102.531271,27.7985478 109.509472,20.3244635 119.5,20.3244635 C129.490528,20.3244635 136.468729,27.7985478 136.468729,38.5 C136.468729,49.2014522 129.490528,56.6755365 119.5,56.6755365 M119.5,0 C97.1913907,0 81,16.191387 81,38.5 C81,60.808613 97.1913907,77 119.5,77 C141.808609,77 158,60.808613 158,38.5 C158,16.191387 141.808609,0 119.5,0" id="Fill-9" fill="#FFFFFF"></path>
            </g>
        </g>
    </g>
</svg>